<svg width="1280" height="640" viewBox="0 0 1280 640" fill="none" xmlns="http://www.w3.org/2000/svg">
  <rect width="1280" height="640" rx="28" fill="#0F172A"/>
  <rect x="34" y="34" width="1212" height="572" rx="24" fill="#111827" stroke="#1F2937" stroke-width="2"/>
  <circle cx="132" cy="98" r="10" fill="#EF4444"/>
  <circle cx="164" cy="98" r="10" fill="#F59E0B"/>
  <circle cx="196" cy="98" r="10" fill="#10B981"/>

  <text x="76" y="178" fill="#F8FAFC" font-size="56" font-family="Segoe UI, Arial, sans-serif" font-weight="700">
    Tube_Ultimate_Player
  </text>
  <text x="76" y="228" fill="#94A3B8" font-size="26" font-family="Segoe UI, Arial, sans-serif">
    PySide6 + yt-dlp + libmpv 的桌面播放与下载体验
  </text>

  <rect x="76" y="282" width="220" height="54" rx="12" fill="#2563EB"/>
  <text x="110" y="317" fill="#F8FAFC" font-size="24" font-family="Segoe UI, Arial, sans-serif" font-weight="600">
    搜索 · 播放 · 下载
  </text>

  <rect x="76" y="370" width="360" height="156" rx="20" fill="#0B1220" stroke="#23314D"/>
  <text x="104" y="416" fill="#E2E8F0" font-size="22" font-family="Segoe UI, Arial, sans-serif" font-weight="600">
    核心能力
  </text>
  <text x="104" y="454" fill="#94A3B8" font-size="20" font-family="Segoe UI, Arial, sans-serif">
    • YouTube 首页与搜索分页
  </text>
  <text x="104" y="486" fill="#94A3B8" font-size="20" font-family="Segoe UI, Arial, sans-serif">
    • libmpv 本地与在线播放
  </text>
  <text x="104" y="518" fill="#94A3B8" font-size="20" font-family="Segoe UI, Arial, sans-serif">
    • 下载队列、收藏、历史、Cookie、代理
  </text>

  <rect x="774" y="154" width="390" height="280" rx="24" fill="#0B1220" stroke="#23314D"/>
  <rect x="804" y="196" width="330" height="42" rx="10" fill="#172554"/>
  <text x="826" y="223" fill="#BFDBFE" font-size="20" font-family="Segoe UI, Arial, sans-serif">
    搜索 YouTube 视频
  </text>
  <rect x="804" y="260" width="142" height="42" rx="10" fill="#1D4ED8"/>
  <text x="855" y="287" fill="#F8FAFC" font-size="19" font-family="Segoe UI, Arial, sans-serif">搜索</text>
  <rect x="962" y="260" width="172" height="42" rx="10" fill="#334155"/>
  <text x="1009" y="287" fill="#E2E8F0" font-size="19" font-family="Segoe UI, Arial, sans-serif">播放URL</text>

  <rect x="804" y="330" width="96" height="96" rx="18" fill="#1E293B"/>
  <rect x="921" y="330" width="96" height="96" rx="18" fill="#1E293B"/>
  <rect x="1038" y="330" width="96" height="96" rx="18" fill="#1E293B"/>
  <text x="830" y="385" fill="#93C5FD" font-size="34" font-family="Segoe UI Symbol, Segoe UI, Arial">▶</text>
  <text x="948" y="385" fill="#FCA5A5" font-size="34" font-family="Segoe UI Symbol, Segoe UI, Arial">♥</text>
  <text x="1065" y="385" fill="#86EFAC" font-size="34" font-family="Segoe UI Symbol, Segoe UI, Arial">↓</text>

  <text x="812" y="466" fill="#94A3B8" font-size="18" font-family="Segoe UI, Arial, sans-serif">
    用一个窗口把搜索、播放、下载串起来
  </text>
</svg>
